# xmcd CD database file
#
# Track frame offsets:
#	150
#	8330
#	17808
#	28843
#	41975
#	53315
#	64315
#	78094
#	88927
#	104631
#	119786
#	133690
#	145709
#	160418
#
# Disc length: 2305 seconds
#
# Revision: 0
# Processed by: cddbd v1.5.2PL0 Copyright (c) Steve Scherf et al.
# Submitted via: CDex 1.70beta2
#
DISCID=bc08ff0e
DTITLE=The Mills Brothers - Nobody's Sweetheart
DYEAR=2004
DGENRE=Jazz
TTITLE0=Tiger Rag
TTITLE1=Bugle Call Rag
TTITLE2=St. Louis Blues
TTITLE3=Dinah
TTITLE4=I Heard
TTITLE5=You Rascal You
TTITLE6=Goodbye Blues
TTITLE7=Nobody's Sweetheart
TTITLE8=Rockin' Chair
TTITLE9=Shine
TTITLE10=Sweet Sue, Just You
TTITLE11=Chinatown, My Chinatown
TTITLE12=Dedicated to You
TTITLE13=I Found a New Baby
EXTD=YEAR: 2004
EXTT0=
EXTT1=
EXTT2=
EXTT3=
EXTT4=
EXTT5=
EXTT6=
EXTT7=
EXTT8=
EXTT9=
EXTT10=
EXTT11=
EXTT12=
EXTT13=
PLAYORDER=
